<svg id="visual" viewBox="0 0 900 600" width="900" height="600" xmlns="http://www.w3.org/2000/svg" xmlns:xlink="http://www.w3.org/1999/xlink" version="1.1"><rect x="0" y="0" width="900" height="600" fill="#000000"></rect><path d="M0 558L21.5 557.7C43 557.3 86 556.7 128.8 557.2C171.7 557.7 214.3 559.3 257.2 563.2C300 567 343 573 385.8 575.5C428.7 578 471.3 577 514.2 575.8C557 574.7 600 573.3 642.8 572.7C685.7 572 728.3 572 771.2 569C814 566 857 560 878.5 557L900 554L900 601L878.5 601C857 601 814 601 771.2 601C728.3 601 685.7 601 642.8 601C600 601 557 601 514.2 601C471.3 601 428.7 601 385.8 601C343 601 300 601 257.2 601C214.3 601 171.7 601 128.8 601C86 601 43 601 21.5 601L0 601Z" fill="#ffffff" stroke-linecap="round" stroke-linejoin="miter"></path></svg>